<svg width="76" height="60" viewBox="0 0 76 60" fill="none" xmlns="http://www.w3.org/2000/svg">
<path d="M8.78025 60C24.0452 60 31.7009 52.8317 32.0721 52.4593L32.1649 52.3662L36.1087 43.2894L39.7742 51.0628L43.718 39.1466L47.8475 49.7595L57.4054 7.12181C58.5654 13.9178 61.3493 28.9527 64.5044 35.2366C68.541 43.3359 75.5007 49.5268 75.8255 49.7595L76.707 48.7355C76.6142 48.6889 69.6081 42.4515 65.7107 34.6315C61.7669 26.7649 58.2406 3.72382 58.1942 3.49108L57.6374 0L47.5226 45.1978L43.6252 35.2366L39.5422 47.4787L36.0623 40.031L31.0513 51.5749C29.9842 52.5058 19.823 60.931 0.892578 58.045L0.707031 59.3949C3.58371 59.8138 6.27475 60 8.78025 60Z" fill="#555770"/>
<path d="M15.2765 45.4772L22.9786 23.5998L27.0616 43.336L29.4744 33.7006L31.4231 39.2398L32.6758 38.7743L29.2424 29.0458L27.2008 37.3313L23.3034 18.6191L14.0238 45.0583L15.2765 45.4772Z" fill="#555770"/>
</svg>
