<svg width="76" height="60" viewBox="0 0 76 60" fill="none" xmlns="http://www.w3.org/2000/svg">
<path d="M67.9268 60C52.6618 60 45.0061 52.8317 44.6349 52.4593L44.5421 52.3662L40.5983 43.2894L36.9328 51.0628L32.989 39.1466L28.8596 49.7595L19.3016 7.12181C18.1416 13.9178 15.3577 28.9527 12.2027 35.2366C8.16603 43.3359 1.20636 49.5268 0.881575 49.7595L0 48.7355C0.0927961 48.6889 7.09888 42.4515 10.9963 34.6315C14.9402 26.7649 18.4664 3.72382 18.5128 3.49108L19.0696 0L29.1844 45.1978L33.0818 35.2366L37.1648 47.4787L40.6447 40.031L45.6557 51.5749C46.7229 52.5058 56.884 60.931 75.8145 58.045L76 59.3949C73.1233 59.8138 70.4323 60 67.9268 60Z" fill="#555770"/>
<path d="M61.4305 45.4772L53.7284 23.5998L49.6454 43.336L47.2327 33.7006L45.284 39.2398L44.0312 38.7743L47.4647 29.0458L49.5062 37.3313L53.4036 18.6191L62.6833 45.0583L61.4305 45.4772Z" fill="#555770"/>
</svg>
