<svg width="62" height="56" viewBox="0 0 62 56" fill="none" xmlns="http://www.w3.org/2000/svg">
<rect width="62" height="56" fill="#F5F5F5"/>
<g id="DesktopGrizzlyHome" clip-path="url(#clip0_0_1)">
<rect width="1440" height="6789" transform="translate(-452 -1008)" fill="white"/>
<g id="Group 1000002049">
<rect id="Rectangle 886" x="-452" y="-220" width="1440" height="556" fill="#F0FFFF"/>
<g id="pattern" opacity="0.07">
<mask id="mask0_0_1" style="mask-type:alpha" maskUnits="userSpaceOnUse" x="-452" y="-220" width="1440" height="556">
<rect id="Rectangle 923" x="-451.5" y="-219.5" width="1439" height="555" fill="#E0E0E0" stroke="#11B2A8"/>
</mask>
<g mask="url(#mask0_0_1)">
<g id="Group 1000002120">
<path id="Vector" d="M37.1426 194.622C51.2992 186.709 65.7704 179.192 80.2415 172.07C100.69 161.982 122.397 152.684 143.946 157.234C162.507 160.993 182.169 174.84 198.999 164.158C213.313 155.058 217.875 129.737 232.975 122.814C246.031 116.681 252.952 128.748 264.749 132.111C304.387 143.585 304.387 73.7543 299.196 42.301C294.949 16.3867 288.657 -11.3079 271.984 -27.5291C228.099 -70.4558 160.147 -18.2316 108.869 -53.8391C62.1526 -86.2815 11.9754 -102.305 -42.606 -85.8857C-101.592 -68.082 -147.679 19.9476 -126.916 94.1298C-118.58 123.803 -103.636 149.717 -91.682 177.214C-83.9746 195.215 -75.7952 215.195 -76.739 235.768C-77.3682 248.627 -87.7496 268.606 -72.0201 276.124C-62.7397 280.476 -53.774 269.2 -48.5832 258.715C-31.5953 225.284 9.45868 210.052 37.1426 194.622Z" stroke="#11B2A8" stroke-miterlimit="10" stroke-linecap="round" stroke-linejoin="round"/>
<path id="Vector_2" d="M-307.961 -60.1679C-299.782 -57.0027 -291.917 -53.4422 -284.681 -48.4967C-261.559 -32.6712 -237.965 -15.263 -220.977 10.6513C-202.416 38.9395 -200.057 78.5035 -210.123 112.924C-224.437 162.181 -276.659 186.908 -257.312 246.056C-249.762 269.003 -234.504 286.61 -217.359 298.874C-187.787 320.041 -154.126 329.141 -124.24 349.318C-101.747 364.55 -78.6246 377.804 -53.9293 385.915C-29.0767 394.223 -2.3366 400.356 17.9545 421.72C39.5039 444.667 49.0989 480.077 59.4804 513.113C71.2775 551.094 86.5352 591.449 114.848 615.187C146.15 641.695 191.766 635.959 222.281 609.451C236.909 596.592 249.178 577.799 252.324 555.644C254.212 542.785 252.796 529.532 252.796 516.278C252.796 503.222 254.212 489.177 260.661 478.89C272.773 459.306 298.254 459.503 316.029 461.68C342.14 464.845 365.419 475.131 388.856 489.968C414.653 506.387 440.606 525.575 469.391 528.938C503.367 532.894 537.343 513.706 561.566 483.835C585.79 453.767 601.047 413.807 610.171 372.463C619.451 330.13 613.788 284.829 626.215 243.485C634.709 214.999 653.427 189.084 677.493 184.535C698.728 180.38 716.188 193.436 734.748 203.723C749.377 211.834 765.264 224.494 781.78 224.692C817.014 225.285 845.17 186.513 859.798 146.158C883.078 81.8663 885.122 9.86001 877.572 -59.3768C874.112 -90.6322 870.494 -121.888 864.831 -152.55C851.304 -225.545 817.014 -330.587 743.557 -319.707C715.401 -315.553 689.133 -299.134 665.381 -279.945C639.899 -259.372 615.519 -233.656 603.092 -198.839C584.531 -146.615 618.193 -117.536 612.687 -72.6306C607.339 -28.5169 563.926 -3.19598 532.31 -3.3938C453.033 -3.78943 374.7 -90.2364 330.5 -166.001C315.085 -192.311 297.782 -230.293 269.784 -233.853C238.482 -237.81 204.978 -225.347 178.71 -204.576C158.891 -188.75 122.241 -149.187 97.5458 -165.606C87.3217 -172.332 83.0746 -187.959 80.8725 -202.4C72.3786 -258.779 78.6704 -315.355 79.4569 -372.525C79.9288 -406.55 84.9622 -448.685 73.1651 -480.534C68.289 -493.986 57.5929 -505.064 45.7957 -503.877C38.7174 -503.283 32.4257 -498.338 26.2912 -493.59C-4.53866 -469.061 -35.3685 -444.531 -66.5129 -421.188C-94.3541 -400.417 -125.656 -386.372 -158.373 -386.372C-181.968 -386.372 -208.55 -392.9 -229.156 -408.132C-245.515 -420.397 -253.222 -445.916 -271.311 -455.015C-300.411 -469.654 -341.15 -442.157 -364.744 -422.375C-393.215 -398.439 -419.326 -367.184 -436.471 -329.598C-462.582 -272.23 -458.964 -201.213 -431.28 -146.022C-416.18 -115.755 -391.327 -95.5776 -365.688 -81.7302C-347.442 -71.4436 -326.836 -67.2894 -307.961 -60.1679Z" stroke="#11B2A8" stroke-miterlimit="10" stroke-linecap="round" stroke-linejoin="round"/>
<path id="Vector_3" d="M333.798 126.375C328.764 139.629 321.529 151.894 311.147 162.18C296.047 177.214 276.542 185.325 257.352 184.732C246.342 184.336 235.174 181.369 224.32 185.918C216.456 189.084 208.905 194.82 201.512 199.173C177.446 213.811 157.313 209.657 131.516 207.679C99.7426 205.305 67.4971 217.372 41.3861 240.121C19.3648 259.309 -4.70141 293.137 8.51138 330.129C11.1854 337.646 16.3762 343.383 22.0388 347.537C39.9705 360.395 62.1491 357.032 82.5974 354.263C136.235 346.944 190.345 380.573 239.578 402.135C247.443 405.498 260.184 411.037 268.52 407.08C277.801 402.728 281.576 386.31 287.238 377.21C299.979 356.637 322.944 350.108 343.393 354.065C358.965 357.032 376.425 364.747 389.008 376.814C398.918 386.309 403.637 397.19 417.164 398.179C448.151 400.157 471.903 361.582 478.352 327.161C482.127 307.182 482.127 286.213 487.475 266.827C494.239 242.89 520.664 209.855 536.236 243.88C541.899 256.342 542.056 271.179 543.944 285.224C545.831 299.269 551.022 314.501 561.718 319.249C573.201 324.59 586.256 314.699 592.548 301.445C598.84 288.191 600.255 272.365 602.458 257.133C607.019 226.867 615.828 196.996 632.186 174.049C656.567 140.024 682.364 144.377 714.609 140.618C748.585 136.662 766.517 88.7894 776.426 47.8408C787.909 0.759834 797.818 -49.8818 786.021 -96.765C774.224 -143.648 731.912 -181.432 695.891 -162.441C660.342 -143.648 652.006 -86.4784 631.557 -45.332C609.536 -0.62486 572.886 18.1679 533.091 25.2894C509.496 29.4436 484.015 23.9046 461.049 18.3657C436.354 12.4311 411.659 7.08995 386.806 2.73793C378.784 1.35319 370.29 -0.0314443 362.583 3.33148C350.314 8.87042 348.112 26.0805 347.325 40.5214C345.595 70.1942 343.55 100.658 333.798 126.375Z" stroke="#11B2A8" stroke-miterlimit="10" stroke-linecap="round" stroke-linejoin="round"/>
<path id="Vector_4" d="M577.921 441.501C598.841 397.98 605.29 344.767 611.739 295.51C616.143 261.683 622.12 226.471 637.85 197.787C652.478 171.279 677.646 166.136 702.184 168.708C728.609 171.477 751.889 185.522 778.629 178.994C794.516 175.236 809.616 165.74 820.941 151.102C832.267 136.661 839.817 118.264 845.008 98.8774C848.154 87.0082 850.513 74.5456 852.4 62.2808C860.737 8.07828 861.681 -48.3002 852.086 -102.305C837.458 -183.806 791.213 -293.003 711.936 -270.649C673.556 -259.769 642.569 -218.029 634.547 -169.563C628.098 -130.395 635.962 -82.523 615.829 -48.4981C598.683 -19.6164 570.37 -3.59287 542.686 1.15479C488.105 10.4523 432.895 -9.72537 389.638 -52.85C354.719 -87.6662 330.967 -135.341 302.34 -177.674C261.128 -238.8 199.783 -208.732 158.1 -164.024C145.988 -150.968 134.191 -136.923 119.563 -129.208C50.6674 -92.216 64.8239 -224.557 69.0709 -270.056C73.947 -322.28 70.3293 -383.011 55.2289 -432.07C50.6674 -447.302 42.0162 -463.721 29.118 -464.117C22.0397 -464.314 15.5906 -459.369 9.61337 -454.621C-8.79016 -439.983 -27.8229 -420.003 -47.7994 -409.123C-61.7986 -401.408 -79.101 -396.462 -94.0441 -391.121C-133.682 -377.076 -176.624 -377.669 -215.948 -392.902C-234.666 -400.023 -252.598 -410.507 -271.788 -414.464C-343.2 -429.102 -382.995 -337.512 -395.579 -263.528C-402.028 -225.546 -398.41 -187.169 -382.681 -153.54C-366.636 -119.317 -335.649 -97.5573 -308.437 -79.1601C-280.439 -60.1694 -251.182 -42.5634 -228.06 -15.0665C-192.196 27.6624 -173.164 104.614 -208.398 155.058C-221.61 174.049 -241.744 194.227 -244.418 220.734C-247.25 249.616 -222.082 269.2 -205.252 282.256C-170.332 309.357 -132.896 336.459 -95.7744 358.417C-63.5289 377.605 -24.677 369.692 6.15285 393.431C23.6126 406.684 35.7244 429.236 45.1621 451.392C58.6895 483.438 64.3521 518.848 78.0367 550.895C89.0474 576.611 104.777 599.954 125.54 612.812C159.044 633.583 212.681 617.362 229.827 572.655C235.489 557.818 237.377 541.399 239.736 525.178C242.096 509.155 245.399 492.538 253.264 479.482C263.802 461.876 281.262 453.963 298.25 453.37C305.957 453.172 313.193 452.974 320.429 453.37C336.315 453.963 351.416 456.733 367.617 464.646C392.155 476.712 413.547 497.484 439.029 506.781C463.724 515.881 490.464 512.518 514.059 500.451C531.99 491.351 554.484 479.68 566.91 460.689C570.842 455.15 574.46 448.424 577.921 441.501Z" stroke="#11B2A8" stroke-miterlimit="10" stroke-linecap="round" stroke-linejoin="round"/>
<path id="Vector_5" d="M785.723 128.552C796.891 118.661 806.958 106.396 814.98 90.9661C835.9 51.0066 840.462 -0.624024 839.361 -47.3094C838.26 -90.434 830.867 -147.208 809.946 -182.222C783.678 -226.336 727.209 -251.459 687.256 -221.984C670.111 -209.324 654.696 -178.068 649.663 -153.934C641.798 -117.337 638.337 -82.7191 621.192 -50.2767C604.362 -18.4278 577.779 5.90387 547.106 9.66244C513.131 13.8166 473.492 11.6406 441.561 -4.18492C401.136 -24.1647 368.419 -50.8702 340.42 -93.5992C322.646 -121.096 299.996 -156.308 275.143 -174.31C249.504 -192.707 208.764 -177.475 184.069 -163.232C168.969 -154.528 154.97 -143.054 142.858 -128.811C132.319 -116.348 121.78 -103.49 106.68 -100.127C88.591 -96.1709 71.9177 -109.821 62.6373 -128.613C47.6943 -159.275 54.6153 -202.202 56.9747 -235.831C60.5925 -287.067 64.8395 -339.291 49.11 -388.35C44.2338 -403.582 36.5264 -419.408 23.9428 -423.562C14.8196 -426.529 5.22463 -422.375 -3.58389 -418.419C-30.7959 -405.956 -57.8507 -390.526 -86.1638 -383.8C-123.443 -375.096 -161.194 -369.359 -199.102 -366.59C-223.325 -365.007 -247.863 -364.414 -271.458 -357.095C-287.187 -352.149 -301.029 -344.039 -312.512 -333.356C-332.173 -314.959 -345.386 -288.451 -351.206 -255.02C-359.857 -205.763 -351.049 -155.121 -322.736 -118.524C-292.692 -79.7518 -250.223 -60.7611 -220.651 -19.6147C-189.507 23.9056 -163.081 106.198 -195.012 159.016C-206.18 177.611 -225.685 192.645 -230.089 216.581C-235.437 245.463 -207.753 264.256 -190.451 274.345C-165.913 288.588 -150.183 313.513 -126.431 329.338C-110.387 340.021 -94.0286 353.473 -76.5689 359.407C-57.0643 366.133 -36.6159 369.694 -16.4821 372.068C-1.85367 373.65 13.8759 374.837 25.5157 386.113C34.0096 394.223 38.0993 407.477 42.9754 418.951C51.1548 438.139 57.2893 458.91 64.2103 478.692C69.8729 494.913 72.5469 512.717 78.8387 529.136C87.9618 552.677 100.703 573.843 116.432 590.856C137.51 613.803 174.16 621.716 195.866 594.812C219.775 564.941 223.55 525.18 233.145 487.001C242.111 450.998 279.547 444.272 304.715 442.095C336.331 439.326 370.778 430.82 397.676 457.328C408.529 468.01 418.281 481.066 431.022 487.594C443.921 494.32 458.549 493.529 472.548 492.144C493.469 489.968 515.018 486.803 533.579 474.34C561.106 455.943 578.408 419.94 588.789 382.948C594.767 361.385 600.115 337.845 603.733 315.689C608.923 283.642 611.44 249.024 621.507 218.56C628.271 197.789 639.91 178.402 656.112 168.907C677.819 156.247 702.514 162.379 725.479 160.401C746.557 158.423 768.263 143.784 785.723 128.552Z" stroke="#11B2A8" stroke-miterlimit="10" stroke-linecap="round" stroke-linejoin="round"/>
<path id="Vector_6" d="M271.043 160.399C285.672 159.806 297.312 144.376 304.705 128.352C327.512 78.8976 332.231 -18.4294 289.447 -55.2238C272.144 -70.2581 249.179 -68.6756 228.259 -66.6974C192.396 -63.3345 156.533 -54.2349 121.928 -67.291C86.6936 -80.5449 56.3357 -101.909 22.8318 -120.504C-24.9859 -146.814 -79.41 -140.286 -106.622 -81.5339C-130.374 -30.2987 -153.496 32.8057 -134.935 92.7449C-127.7 116.088 -115.273 136.068 -105.049 157.432C-94.8249 178.797 -86.1737 203.128 -88.0612 228.053C-88.8477 238.34 -91.3644 248.429 -91.9936 258.715C-92.6228 269.002 -91.3644 280.278 -85.7018 287.795C-78.4662 297.092 -66.0399 297.488 -56.6022 291.751C-47.1645 286.014 -40.0862 275.926 -33.4798 265.639C-10.0429 229.636 30.5392 213.019 64.2004 195.611C86.5363 184.137 103.367 173.455 128.849 175.434C145.837 176.62 163.454 181.961 180.442 180.775C192.711 179.785 204.35 173.258 213.788 163.564C226.057 150.904 233.765 146.75 249.651 154.069C256.415 157.234 263.179 160.795 270.257 160.795C270.572 160.399 270.886 160.399 271.043 160.399Z" stroke="#11B2A8" stroke-miterlimit="10" stroke-linecap="round" stroke-linejoin="round"/>
<path id="Vector_7" d="M17.6348 -73.0261C-27.1943 -83.1149 -76.2703 -61.9484 -105.842 -17.8347C-133.84 24.103 -126.448 77.9101 -104.426 120.837C-93.7302 142.004 -83.8205 173.259 -69.1921 189.678C-54.5636 206.097 -32.6997 207.284 -14.768 199.965C5.52304 191.656 22.511 174.446 41.2291 161.39C76.4632 136.662 117.989 126.771 158.099 132.904C173.042 135.278 187.671 155.059 202.299 145.169C214.883 136.662 218.029 115.1 231.556 107.583C245.87 99.6701 263.015 113.32 277.644 106.792C288.497 101.846 294.631 87.0097 295.261 72.5689C295.89 58.1281 292.115 44.0828 288.182 30.631C280.79 4.32106 269.307 -18.8238 246.342 -25.7475C230.612 -30.4952 214.254 -28.1213 198.367 -24.7584C182.48 -21.5933 166.279 -17.6369 150.235 -19.8129C126.483 -22.978 105.72 -39.0013 84.4853 -51.6618C62.1493 -65.5091 41.2291 -67.8828 17.6348 -73.0261Z" stroke="#11B2A8" stroke-miterlimit="10" stroke-linecap="round" stroke-linejoin="round" stroke-dasharray="8 8"/>
<path id="Vector_8" d="M193.816 87.4051C211.905 84.24 232.668 73.162 235.499 50.4127C238.645 24.4984 214.893 4.91437 193.973 4.71655C173.053 4.51873 152.919 15.5967 132.156 16.3879C94.7199 17.9705 67.9798 -20.8021 37.1499 -41.771C13.7129 -57.7943 -14.2856 -62.7399 -40.2393 -55.4206C-69.1816 -47.31 -118.572 -12.4937 -106.932 34.1917C-103 50.215 -93.2477 62.8754 -83.81 74.9424C-64.7773 99.2741 -55.6542 132.706 -26.8692 141.805C-4.21873 148.927 17.1734 136.86 36.0488 122.221C58.0701 105.011 81.3498 93.1417 107.461 89.9766C120.674 88.394 129.954 93.1418 142.38 95.3179C158.582 98.0873 178.086 92.3506 193.816 87.4051Z" stroke="#11B2A8" stroke-miterlimit="10" stroke-linecap="round" stroke-linejoin="round"/>
<path id="Vector_9" d="M-84.4489 34.3893C-78.1571 40.5217 -71.0788 46.2586 -66.8318 50.8084C-51.5742 66.2383 -36.002 81.0748 -20.5871 96.3069C-15.0818 101.846 -8.94722 107.583 -1.86894 107.978C14.647 109.165 45.3196 88.394 56.4875 73.9532C64.8242 63.2709 70.4869 48.0389 67.9701 33.4002C64.5096 12.6292 39.0278 -24.5608 25.3431 -36.6278C2.37802 -56.8054 -32.856 -48.6946 -57.0795 -37.4189C-73.4382 -29.9018 -104.74 -8.14175 -95.9314 18.366C-94.2011 23.5093 -89.6396 29.0482 -84.4489 34.3893Z" stroke="#11B2A8" stroke-miterlimit="10" stroke-linecap="round" stroke-linejoin="round"/>
<path id="Vector_10" d="M702.498 151.697C709.262 151.697 716.025 151.301 722.789 149.719C758.967 141.014 779.573 95.9116 793.415 56.9412C807.257 17.9708 811.032 -26.934 805.684 -69.0695C802.066 -97.5555 794.673 -126.042 780.202 -148.395C765.731 -170.749 743.237 -186.377 720.43 -184.201C695.577 -182.025 668.679 -162.44 659.084 -132.965C653.736 -116.546 646.973 -100.919 641.31 -85.0931C636.277 -70.6523 633.131 -56.8049 625.581 -43.7488C611.424 -19.6149 590.976 -2.60232 568.955 8.27774C551.652 16.9818 533.248 16.7839 515.159 18.5642C475.521 22.5206 441.388 4.51908 405.525 -13.0868C391.683 -19.8127 360.381 -43.9466 345.753 -32.0774C338.832 -26.5385 335.371 -16.2519 334.113 -6.16316C333.012 3.92562 334.113 14.2122 334.428 24.4988C335.843 60.6998 329.551 97.4941 316.024 129.541C304.069 158.422 278.116 178.007 251.848 174.05C243.511 172.665 235.174 169.303 226.995 170.687C215.984 172.665 207.176 182.556 197.266 188.689C177.132 200.954 153.381 196.602 130.888 194.623C103.99 192.447 82.9126 203.723 58.5319 215.79C35.4095 227.264 8.35468 249.419 -3.44246 277.905C-13.1948 301.644 -10.9926 333.888 5.20877 351.098C16.534 363.165 32.2636 366.331 47.2066 366.528C76.6208 367.122 106.192 370.485 134.977 378.398C151.021 382.75 168.638 384.332 184.053 391.256C197.738 397.388 212.681 404.905 225.265 414.005C235.646 421.522 244.455 431.215 257.667 429.831C276.543 428.05 281.576 413.807 291.486 397.784C301.081 381.958 323.102 370.089 338.674 371.276C364.314 373.452 382.245 395.41 403.952 408.664C431.636 425.479 463.095 393.432 475.207 363.759C485.588 338.24 489.206 309.161 496.441 282.06C500.059 268.212 508.396 252.189 519.721 254.958C530.26 257.53 533.72 273.751 536.237 286.807C539.068 301.644 543.787 316.48 552.596 326.965C553.54 327.954 554.326 328.943 555.27 329.932C586.571 362.572 599.155 300.852 604.346 272.564C612.997 225.483 624.165 166.137 667.736 154.268C679.061 151.103 690.858 151.895 702.498 151.697Z" stroke="#11B2A8" stroke-miterlimit="10" stroke-linecap="round" stroke-linejoin="round"/>
<path id="Vector_11" d="M-25.4559 60.1074C-22.1527 62.2834 -18.5349 64.6573 -14.7598 64.8551C-6.10859 65.2508 0.183217 54.7664 4.90207 45.6667C8.99174 37.5561 13.0815 29.4454 14.969 20.3456C17.0138 11.2459 16.542 0.761368 12.1377 -6.95361C7.26156 -15.262 -1.3897 -18.8227 -9.41175 -20.4052C-28.2872 -24.1638 -76.734 -23.9661 -75.9476 12.8284C-75.633 40.1275 -40.5562 50.0186 -25.4559 60.1074Z" stroke="#11B2A8" stroke-miterlimit="10" stroke-linecap="round" stroke-linejoin="round"/>
<path id="Vector_12" d="M881.665 -80.9391C884.653 -33.0668 888.428 15.3988 884.339 63.2711C881.665 93.9331 876.159 124.793 865.935 152.883C860.744 167.126 854.138 180.776 845.801 192.645C839.038 202.14 831.173 217.768 822.364 224.098C814.5 229.637 801.601 227.659 792.636 229.044C781.782 230.824 770.614 229.242 760.39 224.494C738.526 214.603 715.089 202.338 691.495 209.262C674.664 214.207 660.508 228.846 650.441 246.65C641.318 262.673 636.442 280.477 630.15 298.281C624.487 314.304 624.015 330.13 622.442 347.538C622.442 348.131 622.285 348.527 622.285 349.12C620.398 369.693 616.78 390.267 610.96 409.653C605.612 427.655 594.601 440.908 592.399 460.493C591.927 465.042 591.77 469.988 589.725 473.944C586.264 481.066 579.029 482.648 573.681 486.605C568.018 490.759 562.828 496.496 557.794 501.639C544.739 514.893 530.582 527.356 514.695 534.279C490.157 545.159 462.788 541.994 437.935 531.905C413.083 521.816 392.005 499.463 367.624 489.968C345.76 481.264 320.593 480.077 297.942 480.077C287.246 480.077 275.449 481.461 267.585 490.759C256.417 504.013 258.147 526.366 256.731 545.555C254.529 575.426 241.945 603.714 223.227 622.507C203.094 642.882 182.96 648.619 156.849 644.267C116.109 637.541 88.4254 610.637 66.876 567.711C56.0226 546.148 53.034 523.003 45.4838 500.452C31.17 458.316 0.654747 421.324 -33.321 405.499C-49.837 397.784 -66.0384 393.432 -82.3971 384.926C-102.059 374.441 -122.035 364.55 -141.855 355.055C-166.55 343.186 -195.02 330.921 -219.716 313.513C-229.783 306.391 -239.22 298.281 -247.4 288.785C-263.601 270.388 -275.398 242.891 -274.769 214.999C-273.983 187.502 -252.433 164.357 -239.378 143.982C-216.098 107.583 -207.761 68.81 -225.064 25.6854C-250.074 -36.4299 -302.138 -44.3425 -350.428 -59.1789C-371.034 -65.5092 -392.111 -77.9719 -408.942 -94.3909C-423.413 -108.634 -433.952 -128.614 -443.232 -148.198C-463.208 -190.531 -472.174 -243.349 -463.209 -291.617C-446.693 -380.635 -379.213 -447.301 -311.891 -471.039C-289.712 -478.754 -273.511 -476.182 -256.208 -455.807C-247.557 -445.718 -240.164 -434.047 -230.726 -425.145C-205.402 -400.615 -175.673 -390.527 -143.899 -397.45C-117.002 -403.385 -92.1494 -419.408 -69.027 -437.805C-45.2754 -456.4 -21.052 -473.611 3.32874 -490.821C20.3166 -502.888 47.5287 -535.133 67.6625 -518.318C76.471 -510.999 81.6618 -498.536 85.2796 -486.073C96.1329 -449.279 90.9421 -402.989 90.6275 -364.019C90.4702 -320.696 84.8076 -275.989 86.3805 -232.864C87.3243 -204.378 102.582 -183.212 126.019 -186.179C140.175 -187.96 152.13 -199.829 164.242 -209.324C189.094 -228.71 221.182 -252.844 251.069 -253.438C274.191 -253.833 300.459 -241.173 313.2 -216.248C327.671 -187.959 338.525 -159.473 356.614 -134.153C387.601 -90.6323 427.554 -56.6074 471.596 -37.8146C507.145 -22.5825 559.524 -24.9563 582.175 -68.4766C603.882 -110.019 582.332 -158.484 598.219 -202.994C606.556 -226.336 622.442 -243.942 638.172 -259.966C657.047 -279.154 677.024 -297.156 698.731 -311.003C717.763 -323.268 745.29 -338.5 767.311 -333.752C849.419 -316.146 875.845 -171.145 880.878 -85.8846C881.35 -84.4998 881.507 -82.7194 881.665 -80.9391Z" stroke="#11B2A8" stroke-miterlimit="10" stroke-linecap="round" stroke-linejoin="round"/>
</g>
</g>
</g>
<g id="Group 1000002345">
<g id="Frame 1000002071">
<g id="Frame 1000002070">
<g id="IconDual">
<g id="Group">
<path id="Vector_13" d="M50.2858 6.14282H11.7144V11.2857H50.2858V6.14282Z" fill="#F0FFFF"/>
<path id="Vector_14" d="M55.4286 11.2856H6.57147V16.4285H55.4286V11.2856Z" fill="#F0FFFF"/>
<path id="Vector_15" d="M45.1429 1H16.8572V6.14285H45.1429V1Z" fill="#F0FFFF"/>
<path id="Vector_16" d="M56.7143 16.4285H5.28573C3.15549 16.4285 1.42859 18.1554 1.42859 20.2856V51.1427C1.42859 53.273 3.15549 54.9999 5.28573 54.9999H56.7143C58.8445 54.9999 60.5714 53.273 60.5714 51.1427V20.2856C60.5714 18.1554 58.8445 16.4285 56.7143 16.4285Z" fill="#F0FFFF"/>
<path id="Vector_17" d="M5.28573 16.4285C4.26275 16.4285 3.28167 16.8348 2.55832 17.5582C1.83496 18.2816 1.42859 19.2626 1.42859 20.2856V51.1427C1.42859 52.1657 1.83496 53.1468 2.55832 53.8701C3.28167 54.5935 4.26275 54.9999 5.28573 54.9999H6.57144L45.1428 16.4285H5.28573Z" fill="white"/>
<path id="Vector_18" d="M52.8571 24.1428H42.5714V34.4285H52.8571V24.1428Z" fill="#11B2A8"/>
<path id="Vector_19" d="M56.7143 16.4285H5.28573C3.15549 16.4285 1.42859 18.1554 1.42859 20.2856V51.1427C1.42859 53.273 3.15549 54.9999 5.28573 54.9999H56.7143C58.8445 54.9999 60.5714 53.273 60.5714 51.1427V20.2856C60.5714 18.1554 58.8445 16.4285 56.7143 16.4285Z" stroke="#00303E" stroke-linecap="round" stroke-linejoin="round"/>
<path id="Vector_20" d="M52.8571 24.1428H42.5714V34.4285H52.8571V24.1428Z" stroke="#00303E" stroke-linecap="round" stroke-linejoin="round"/>
<path id="Vector_21" d="M11.7144 26.7144H16.8572" stroke="#00303E" stroke-linecap="round" stroke-linejoin="round"/>
<path id="Vector_22" d="M11.7144 39.5637H34.8572" stroke="#00303E" stroke-linecap="round" stroke-linejoin="round"/>
<path id="Vector_23" d="M11.7144 47.2856H42.5715" stroke="#00303E" stroke-linecap="round" stroke-linejoin="round"/>
<path id="Vector_24" d="M6.57147 11.2856H55.4286" stroke="#00303E" stroke-linecap="round" stroke-linejoin="round"/>
<path id="Vector_25" d="M11.7144 6.14282H50.2858" stroke="#00303E" stroke-linecap="round" stroke-linejoin="round"/>
<path id="Vector_26" d="M16.8572 1H45.1429" stroke="#00303E" stroke-linecap="round" stroke-linejoin="round"/>
</g>
</g>
</g>
</g>
</g>
</g>
</g>
<defs>
<clipPath id="clip0_0_1">
<rect width="1440" height="6789" fill="white" transform="translate(-452 -1008)"/>
</clipPath>
</defs>
</svg>
