<svg width="70" height="60" viewBox="0 0 70 60" fill="none" xmlns="http://www.w3.org/2000/svg">
<path d="M34.985 60C51.5535 60 64.985 46.5685 64.985 30C64.985 13.4315 51.5535 0 34.985 0C18.4164 0 4.98499 13.4315 4.98499 30C4.98499 46.5685 18.4164 60 34.985 60Z" fill="white"/>
<path d="M60.5 23.6011V39.9001C60.4998 40.6041 60.254 41.286 59.8049 41.8281C59.3558 42.3703 58.7317 42.7388 58.04 42.8701L51.5 44.0701H40.37L41.15 39.3901L46.28 38.5201L47.18 33.3901L39.38 25.5901L30.14 28.6201C29.6306 28.7898 29.0777 28.7746 28.5784 28.5771C28.0791 28.3796 27.6654 28.0124 27.41 27.5401C27.152 27.0668 27.0649 26.5192 27.1632 25.9892C27.2616 25.4592 27.5394 24.9793 27.95 24.6301L33.71 19.9201L38.96 15.6001C39.5758 15.0861 40.3189 14.7479 41.111 14.6211C41.903 14.4944 42.7146 14.5839 43.46 14.8801L58.58 20.8201C59.1438 21.035 59.6292 21.4158 59.972 21.9124C60.3148 22.4089 60.4989 22.9977 60.5 23.6011Z" fill="#F0FFFF"/>
<path d="M47.186 33.3809L46.286 38.5109L41.156 39.3809L40.376 44.0609H40.346L40.286 44.5109L35.156 45.3809L34.646 48.4409C34.5323 49.0483 34.2358 49.6065 33.7962 50.0408C33.3566 50.4751 32.7948 50.7647 32.186 50.8709L30.686 51.1409C30.2109 51.2179 29.7244 51.182 29.2657 51.0361C28.8071 50.8902 28.3892 50.6383 28.046 50.3009L17.3 39.5609L9.5 38.0609V20.0609L17 18.5609L26 14.8109C26.5496 14.5873 27.1529 14.5306 27.7345 14.648C28.3161 14.7654 28.8502 15.0516 29.27 15.4709L33.71 19.9109L27.95 24.6209C27.5394 24.9701 27.2616 25.45 27.1632 25.98C27.0649 26.51 27.152 27.0576 27.41 27.5309C27.6654 28.0032 28.0791 28.3704 28.5784 28.5679C29.0777 28.7654 29.6306 28.7807 30.14 28.6109L39.38 25.5809L47.186 33.3809Z" fill="#F0FFFF"/>
<path d="M47.108 33.8339L46.286 38.5139L41.156 39.3809L40.376 44.0609H51.5L58.04 42.8609C58.7311 42.7297 59.3549 42.3616 59.8039 41.8201C60.2529 41.2785 60.4991 40.5974 60.5 39.8939V29.5259C56.2485 31.5539 51.7444 33.0028 47.108 33.8339Z" fill="#F0FFFF"/>
<path d="M36.104 34.8599C26.8345 34.9732 17.6856 32.752 9.5 28.4009V38.0609L17.3 39.5609L28.04 50.3009C28.3825 50.6394 28.8002 50.8922 29.259 51.0387C29.7178 51.1852 30.2047 51.2213 30.68 51.1439L32.18 50.8709C32.7889 50.7651 33.351 50.4756 33.7907 50.0412C34.2304 49.6069 34.5267 49.0485 34.64 48.4409L35.15 45.3809L40.28 44.5139L40.34 44.0609H40.37L41.15 39.3809L46.28 38.5139L47.102 33.8339C43.4749 34.5098 39.7936 34.8532 36.104 34.8599Z" fill="#F0FFFF"/>
<path d="M42.506 24.561L39.386 25.581" stroke="#212A34" stroke-linecap="round" stroke-linejoin="round"/>
<path d="M60.5 23.6011V39.9001C60.4998 40.6041 60.254 41.286 59.8049 41.8281C59.3558 42.3703 58.7317 42.7388 58.04 42.8701L51.5 44.0701H40.37L41.15 39.3901L46.28 38.5201L47.18 33.3901L39.38 25.5901L30.14 28.6201C29.6306 28.7898 29.0777 28.7746 28.5784 28.5771C28.0791 28.3796 27.6654 28.0124 27.41 27.5401C27.152 27.0668 27.0649 26.5192 27.1632 25.9892C27.2616 25.4592 27.5394 24.9793 27.95 24.6301L33.71 19.9201L38.96 15.6001C39.5758 15.0861 40.3189 14.7479 41.111 14.6211C41.903 14.4944 42.7146 14.5839 43.46 14.8801L58.58 20.8201C59.1438 21.035 59.6292 21.4158 59.972 21.9124C60.3148 22.4089 60.4989 22.9977 60.5 23.6011Z" stroke="#212A34" stroke-linecap="round" stroke-linejoin="round"/>
<path d="M47.186 33.3809L46.286 38.5109L41.156 39.3809L40.376 44.0609H40.346L40.286 44.5109L35.156 45.3809L34.646 48.4409C34.5323 49.0483 34.2358 49.6065 33.7962 50.0408C33.3566 50.4751 32.7948 50.7647 32.186 50.8709L30.686 51.1409C30.2109 51.2179 29.7244 51.182 29.2657 51.0361C28.8071 50.8902 28.3892 50.6383 28.046 50.3009L17.3 39.5609L9.5 38.0609V20.0609L17 18.5609L26 14.8109C26.5496 14.5873 27.1529 14.5306 27.7345 14.648C28.3161 14.7654 28.8502 15.0516 29.27 15.4709L33.71 19.9109L27.95 24.6209C27.5394 24.9701 27.2616 25.45 27.1632 25.98C27.0649 26.51 27.152 27.0576 27.41 27.5309C27.6654 28.0032 28.0791 28.3704 28.5784 28.5679C29.0777 28.7654 29.6306 28.7807 30.14 28.6109L39.38 25.5809L47.186 33.3809Z" stroke="#212A34" stroke-linecap="round" stroke-linejoin="round"/>
<path d="M0.5 15.5491H6.5C7.29565 15.5491 8.05871 15.8651 8.62132 16.4278C9.18393 16.9904 9.5 17.7534 9.5 18.5491V39.5491C9.5 40.3447 9.18393 41.1078 8.62132 41.6704C8.05871 42.233 7.29565 42.5491 6.5 42.5491H0.5V15.5491Z" fill="#11B2A8" stroke="#212A34" stroke-linecap="round" stroke-linejoin="round"/>
<path d="M63.5 18.5491H69.5V45.5491H63.5C62.7044 45.5491 61.9413 45.233 61.3787 44.6704C60.8161 44.1078 60.5 43.3447 60.5 42.5491V21.5491C60.5 20.7534 60.8161 19.9904 61.3787 19.4278C61.9413 18.8651 62.7044 18.5491 63.5 18.5491Z" fill="#11B2A8" stroke="#212A34" stroke-linecap="round" stroke-linejoin="round"/>
</svg>
