<svg width="62" height="62" viewBox="0 0 62 62" fill="none" xmlns="http://www.w3.org/2000/svg">
<path d="M61.0001 55.7825C61.0001 57.1663 60.4504 58.4933 59.4719 59.4718C58.4935 60.4502 57.1664 60.9999 55.7827 60.9999H6.21749C4.83376 60.9999 3.50669 60.4502 2.52824 59.4718C1.54979 58.4933 1.00011 57.1663 1.00011 55.7825V14.0435H61.0001V55.7825Z" fill="#F0FFFF"/>
<path d="M5.04619 60.8669L51.8696 14.0435H1.00011V55.7825C1.00008 56.9627 1.40016 58.108 2.13503 59.0315C2.86991 59.9549 3.89615 60.6019 5.04619 60.8669Z" fill="#F0FFFF"/>
<path d="M61.0001 6.21739C61.0001 4.83365 60.4504 3.50659 59.4719 2.52814C58.4935 1.54969 57.1664 1 55.7827 1H6.21749C4.83376 1 3.50669 1.54969 2.52824 2.52814C1.54979 3.50659 1.00011 4.83365 1.00011 6.21739V14.0435H61.0001V6.21739Z" fill="white"/>
<path d="M24.4783 61H6.21749C4.83376 61 3.50669 60.4503 2.52824 59.4718C1.54979 58.4934 1.00011 57.1663 1.00011 55.7826V6.21739C1.00011 4.83365 1.54979 3.50659 2.52824 2.52814C3.50669 1.54969 4.83376 1 6.21749 1H55.7827C57.1664 1 58.4935 1.54969 59.4719 2.52814C60.4504 3.50659 61.0001 4.83365 61.0001 6.21739V40.1304" stroke="#212A34" stroke-linecap="round" stroke-linejoin="round"/>
<path d="M25.7827 21.8669H10.1305C9.41016 21.8669 8.82619 22.4509 8.82619 23.1713V41.4321C8.82619 42.1525 9.41016 42.7365 10.1305 42.7365H25.7827C26.5031 42.7365 27.087 42.1525 27.087 41.4321V23.1713C27.087 22.4509 26.5031 21.8669 25.7827 21.8669Z" fill="white" stroke="#212A34" stroke-linecap="round" stroke-linejoin="round"/>
<path d="M17.9567 34.9103C20.1178 34.9103 21.8697 33.1584 21.8697 30.9973C21.8697 28.8362 20.1178 27.0842 17.9567 27.0842C15.7956 27.0842 14.0436 28.8362 14.0436 30.9973C14.0436 33.1584 15.7956 34.9103 17.9567 34.9103Z" fill="#11B2A8" stroke="#212A34" stroke-linecap="round" stroke-linejoin="round"/>
<path d="M24.4784 42.7392H11.4349C11.2778 40.8399 11.8735 38.9549 13.0935 37.4909C14.3135 36.0268 16.0602 35.101 17.9567 34.9131C19.8531 35.101 21.5998 36.0268 22.8198 37.4909C24.0398 38.9549 24.6355 40.8399 24.4784 42.7392Z" fill="#F0FFFF" stroke="#212A34" stroke-linecap="round" stroke-linejoin="round"/>
<path d="M10.1305 6.86694C10.2593 6.86694 10.3853 6.90513 10.4925 6.97668C10.5997 7.04822 10.6833 7.14992 10.7327 7.26894C10.7822 7.38796 10.7953 7.51896 10.7703 7.64539C10.7453 7.77183 10.6835 7.88804 10.5925 7.97935C10.5016 8.07066 10.3856 8.13298 10.2593 8.15844C10.133 8.1839 10.0019 8.17135 9.8827 8.12239C9.76349 8.07343 9.66145 7.99025 9.58948 7.88334C9.5175 7.77643 9.47882 7.6506 9.4783 7.52173C9.47796 7.43586 9.49457 7.35077 9.52719 7.27135C9.55981 7.19192 9.6078 7.11972 9.66839 7.05888C9.72899 6.99805 9.801 6.94977 9.88029 6.91684C9.95959 6.8839 10.0446 6.86694 10.1305 6.86694" stroke="#212A34" stroke-linecap="round" stroke-linejoin="round"/>
<path d="M17.9566 6.86694C18.0854 6.86694 18.2114 6.90513 18.3186 6.97668C18.4258 7.04822 18.5094 7.14992 18.5588 7.26894C18.6083 7.38796 18.6213 7.51896 18.5964 7.64539C18.5714 7.77183 18.5096 7.88804 18.4186 7.97935C18.3277 8.07066 18.2117 8.13298 18.0854 8.15844C17.959 8.1839 17.828 8.17135 17.7088 8.12239C17.5896 8.07343 17.4875 7.99025 17.4156 7.88334C17.3436 7.77643 17.3049 7.6506 17.3044 7.52173C17.304 7.43586 17.3207 7.35077 17.3533 7.27135C17.3859 7.19192 17.4339 7.11972 17.4945 7.05888C17.5551 6.99805 17.6271 6.94977 17.7064 6.91684C17.7857 6.8839 17.8707 6.86694 17.9566 6.86694" stroke="#212A34" stroke-linecap="round" stroke-linejoin="round"/>
<path d="M25.7826 6.86694C25.9115 6.86694 26.0375 6.90513 26.1447 6.97668C26.2519 7.04822 26.3355 7.14992 26.3849 7.26894C26.4343 7.38796 26.4474 7.51896 26.4225 7.64539C26.3975 7.77183 26.3356 7.88804 26.2447 7.97935C26.1538 8.07066 26.0378 8.13298 25.9115 8.15844C25.7851 8.1839 25.6541 8.17135 25.5349 8.12239C25.4156 8.07343 25.3136 7.99025 25.2416 7.88334C25.1697 7.77643 25.131 7.6506 25.1305 7.52173C25.1305 7.34876 25.1992 7.18288 25.3215 7.06057C25.4438 6.93826 25.6097 6.86955 25.7826 6.86955" stroke="#212A34" stroke-linecap="round" stroke-linejoin="round"/>
<path d="M58.3913 60.9999V54.0425C58.3906 51.7367 57.4743 49.5256 55.8439 47.8951C54.2134 46.2647 52.0023 45.3484 49.6965 45.3477H45.3478V33.6086C45.3478 32.5708 44.9356 31.5755 44.2017 30.8417C43.4679 30.1078 42.4726 29.6956 41.4348 29.6956C40.397 29.6956 39.4017 30.1078 38.6678 30.8417C37.934 31.5755 37.5217 32.5708 37.5217 33.6086V51.8695L34.1591 49.0521C33.6056 48.3872 32.8107 47.9694 31.9492 47.8906C31.0876 47.8119 30.2301 48.0786 29.5652 48.6321C28.9003 49.1856 28.4826 49.9805 28.4038 50.842C28.325 51.7036 28.5917 52.5611 29.1452 53.226L35.6122 60.9999" fill="#F0FFFF"/>
<path d="M58.3913 60.9999V54.0425C58.3906 51.7367 57.4743 49.5256 55.8439 47.8951C54.2134 46.2647 52.0023 45.3484 49.6965 45.3477H45.3478V33.6086C45.3478 32.5708 44.9356 31.5755 44.2017 30.8417C43.4679 30.1078 42.4726 29.6956 41.4348 29.6956C40.397 29.6956 39.4017 30.1078 38.6678 30.8417C37.934 31.5755 37.5217 32.5708 37.5217 33.6086V51.8695L34.1591 49.0521C33.6056 48.3872 32.8107 47.9694 31.9492 47.8906C31.0876 47.8119 30.2301 48.0786 29.5652 48.6321C28.9003 49.1856 28.4826 49.9805 28.4038 50.842C28.325 51.7036 28.5917 52.5611 29.1452 53.226L35.6122 60.9999" stroke="#212A34" stroke-linecap="round" stroke-linejoin="round"/>
</svg>
